<svg xmlns="http://www.w3.org/2000/svg" width="1000px" height="1000px" viewBox="0 0 25.000000 25.000000">
	<path stroke="#333333" stroke-width="1.000000" fill="#333333" d="
		M 0 0 L 0 25.000000 L 25.000000 25.000000 L 25.000000 0 L 0 0 
		" />
	<path stroke="rgb(200, 150, 100)" stroke-width="1.000000" fill="none" d="
		M 1.400000 13.799999
		L 1.000000 13.500000
		L 1.800000 13.500000
		L 1.800000 14.100000
		L 1.000000 14.100000
		L 1.000000 13.500000
		M 1.400000 13.700000
		L 5.200000 13.700000
		M 5.200000 13.799999
		L 4.800000 13.500000
		L 5.600000 13.500000
		L 5.600000 14.100000
		L 4.800000 14.100000
		L 4.800000 13.500000
		M 5.200000 11.100000
		L 5.200000 7.299999
		L 3.900000 7.299999
		L 3.900000 2.199999
		M 1.400000 2.199999
		L 1.400000 11.100000
		M 1.400000 11.000000
		L 1.000000 10.700000
		L 1.800000 10.700000
		L 1.800000 11.299999
		L 1.000000 11.299999
		L 1.000000 10.700000
		M 1.200000 7.299999
		L 0.900000 6.900000
		L 1.500000 6.900000
		L 1.500000 7.700001
		L 0.900000 7.700001
		L 0.900000 6.900000
		M 4.000000 7.299999
		L 3.700000 6.900000
		L 4.300000 6.900000
		L 4.300000 7.700001
		L 3.700000 7.700001
		L 3.700000 6.900000
		M 5.200000 11.000000
		L 4.800000 10.700000
		L 5.600000 10.700000
		L 5.600000 11.299999
		L 4.800000 11.299999
		L 4.800000 10.700000
		M 4.200000 3.099998
		L 4.000000 3.299999
		L 3.800000 3.299999
		L 3.600000 3.099998
		L 3.600000 1.400000
		L 3.800000 1.199999
		L 4.000000 1.199999
		L 4.200000 1.400000
		L 4.200000 3.099998
		M 1.700000 3.099998
		L 1.500000 3.299999
		L 1.300000 3.299999
		L 1.100000 3.099998
		L 1.100000 1.400000
		L 1.300000 1.199999
		L 1.500000 1.199999
		L 1.700000 1.400000
		L 1.700000 3.099998
		M -2.700000 19.000000
		M 5.500000 13.799999
		L 5.100000 13.500000
		L 5.900000 13.500000
		L 5.900000 14.100000
		L 5.100000 14.100000
		L 5.100000 13.500000
		M 5.500000 13.700000
		L 9.300000 13.700000
		M 9.300000 13.799999
		L 8.900000 13.500000
		L 9.700000 13.500000
		L 9.700000 14.100000
		L 8.900000 14.100000
		L 8.900000 13.500000
		M 9.300000 11.100000
		L 9.300000 7.299999
		L 8.000000 7.299999
		L 8.000000 2.199999
		M 5.500000 2.199999
		L 5.500000 11.100000
		M 5.500000 11.000000
		L 5.100000 10.700000
		L 5.900000 10.700000
		L 5.900000 11.299999
		L 5.100000 11.299999
		L 5.100000 10.700000
		M 5.300000 7.299999
		L 5.000000 6.900000
		L 5.600000 6.900000
		L 5.600000 7.700001
		L 5.000000 7.700001
		L 5.000000 6.900000
		M 8.100000 7.299999
		L 7.800000 6.900000
		L 8.400000 6.900000
		L 8.400000 7.700001
		L 7.800000 7.700001
		L 7.800000 6.900000
		M 9.300000 11.000000
		L 8.900000 10.700000
		L 9.700000 10.700000
		L 9.700000 11.299999
		L 8.900000 11.299999
		L 8.900000 10.700000
		M 8.300000 3.099998
		L 8.100000 3.299999
		L 7.900000 3.299999
		L 7.700000 3.099998
		L 7.700000 1.400000
		L 7.900000 1.199999
		L 8.100000 1.199999
		L 8.300000 1.400000
		L 8.300000 3.099998
		M 5.800000 3.099998
		L 5.600000 3.299999
		L 5.400000 3.299999
		L 5.200000 3.099998
		L 5.200000 1.400000
		L 5.400000 1.199999
		L 5.600000 1.199999
		L 5.800000 1.400000
		L 5.800000 3.099998
		M 1.400000 19.000000
		M 9.600000 13.799999
		L 9.200000 13.500000
		L 10.000000 13.500000
		L 10.000000 14.100000
		L 9.200000 14.100000
		L 9.200000 13.500000
		M 9.600000 13.700000
		L 13.400000 13.700000
		M 13.400000 13.799999
		L 13.000000 13.500000
		L 13.800000 13.500000
		L 13.800000 14.100000
		L 13.000000 14.100000
		L 13.000000 13.500000
		M 13.400000 11.100000
		L 13.400000 7.299999
		L 12.100000 7.299999
		L 12.100000 2.199999
		M 9.600000 2.199999
		L 9.600000 11.100000
		M 9.600000 11.000000
		L 9.200000 10.700000
		L 10.000000 10.700000
		L 10.000000 11.299999
		L 9.200000 11.299999
		L 9.200000 10.700000
		M 9.400000 7.299999
		L 9.100000 6.900000
		L 9.700001 6.900000
		L 9.700001 7.700001
		L 9.100000 7.700001
		L 9.100000 6.900000
		M 12.200001 7.299999
		L 11.900000 6.900000
		L 12.500000 6.900000
		L 12.500000 7.700001
		L 11.900000 7.700001
		L 11.900000 6.900000
		M 13.400000 11.000000
		L 13.000000 10.700000
		L 13.800000 10.700000
		L 13.800000 11.299999
		L 13.000000 11.299999
		L 13.000000 10.700000
		M 12.400000 3.099998
		L 12.200001 3.299999
		L 12.000000 3.299999
		L 11.800000 3.099998
		L 11.800000 1.400000
		L 12.000000 1.199999
		L 12.200001 1.199999
		L 12.400000 1.400000
		L 12.400000 3.099998
		M 9.900000 3.099998
		L 9.700001 3.299999
		L 9.500000 3.299999
		L 9.300000 3.099998
		L 9.300000 1.400000
		L 9.500000 1.199999
		L 9.700001 1.199999
		L 9.900000 1.400000
		L 9.900000 3.099998
		M 5.500000 19.000000
		M 13.699999 13.799999
		L 13.299999 13.500000
		L 14.099999 13.500000
		L 14.099999 14.100000
		L 13.299999 14.100000
		L 13.299999 13.500000
		M 13.699999 13.700000
		L 17.500000 13.700000
		M 17.500000 13.799999
		L 17.099998 13.500000
		L 17.900000 13.500000
		L 17.900000 14.100000
		L 17.099998 14.100000
		L 17.099998 13.500000
		M 17.500000 11.100000
		L 17.500000 7.299999
		L 16.199999 7.299999
		L 16.199999 2.199999
		M 13.699999 2.199999
		L 13.699999 11.100000
		M 13.699999 11.000000
		L 13.299999 10.700000
		L 14.099999 10.700000
		L 14.099999 11.299999
		L 13.299999 11.299999
		L 13.299999 10.700000
		M 13.500000 7.299999
		L 13.200000 6.900000
		L 13.799999 6.900000
		L 13.799999 7.700001
		L 13.200000 7.700001
		L 13.200000 6.900000
		M 16.299999 7.299999
		L 16.000000 6.900000
		L 16.599998 6.900000
		L 16.599998 7.700001
		L 16.000000 7.700001
		L 16.000000 6.900000
		M 17.500000 11.000000
		L 17.099998 10.700000
		L 17.900000 10.700000
		L 17.900000 11.299999
		L 17.099998 11.299999
		L 17.099998 10.700000
		M 16.500000 3.099998
		L 16.299999 3.299999
		L 16.099998 3.299999
		L 15.900000 3.099998
		L 15.900000 1.400000
		L 16.099998 1.199999
		L 16.299999 1.199999
		L 16.500000 1.400000
		L 16.500000 3.099998
		M 14.000000 3.099998
		L 13.799999 3.299999
		L 13.599999 3.299999
		L 13.400000 3.099998
		L 13.400000 1.400000
		L 13.599999 1.199999
		L 13.799999 1.199999
		L 14.000000 1.400000
		L 14.000000 3.099998
		M 9.599999 19.000000
		M 17.799999 13.799999
		L 17.400000 13.500000
		L 18.200001 13.500000
		L 18.200001 14.100000
		L 17.400000 14.100000
		L 17.400000 13.500000
		M 17.799999 13.700000
		L 21.600000 13.700000
		M 21.600000 13.799999
		L 21.200001 13.500000
		L 22.000000 13.500000
		L 22.000000 14.100000
		L 21.200001 14.100000
		L 21.200001 13.500000
		M 21.600000 11.100000
		L 21.600000 7.299999
		L 20.299999 7.299999
		L 20.299999 2.199999
		M 17.799999 2.199999
		L 17.799999 11.100000
		M 17.799999 11.000000
		L 17.400000 10.700000
		L 18.200001 10.700000
		L 18.200001 11.299999
		L 17.400000 11.299999
		L 17.400000 10.700000
		M 17.600000 7.299999
		L 17.299999 6.900000
		L 17.900000 6.900000
		L 17.900000 7.700001
		L 17.299999 7.700001
		L 17.299999 6.900000
		M 20.400000 7.299999
		L 20.100000 6.900000
		L 20.700001 6.900000
		L 20.700001 7.700001
		L 20.100000 7.700001
		L 20.100000 6.900000
		M 21.600000 11.000000
		L 21.200001 10.700000
		L 22.000000 10.700000
		L 22.000000 11.299999
		L 21.200001 11.299999
		L 21.200001 10.700000
		M 20.600000 3.099998
		L 20.400000 3.299999
		L 20.200001 3.299999
		L 20.000000 3.099998
		L 20.000000 1.400000
		L 20.200001 1.199999
		L 20.400000 1.199999
		L 20.600000 1.400000
		L 20.600000 3.099998
		M 18.100000 3.099998
		L 17.900000 3.299999
		L 17.700001 3.299999
		L 17.500000 3.099998
		L 17.500000 1.400000
		L 17.700001 1.199999
		L 17.900000 1.199999
		L 18.100000 1.400000
		L 18.100000 3.099998
		M 13.700000 19.000000
		M 21.900000 13.799999
		L 21.500000 13.500000
		L 22.299999 13.500000
		L 22.299999 14.100000
		L 21.500000 14.100000
		L 21.500000 13.500000
		M 21.900000 13.700000
		L 25.699999 13.700000
		M 25.699999 13.799999
		L 25.299999 13.500000
		L 26.099998 13.500000
		L 26.099998 14.100000
		L 25.299999 14.100000
		L 25.299999 13.500000
		M 25.699999 11.100000
		L 25.699999 7.299999
		L 24.400000 7.299999
		L 24.400000 2.199999
		M 21.900000 2.199999
		L 21.900000 11.100000
		M 21.900000 11.000000
		L 21.500000 10.700000
		L 22.299999 10.700000
		L 22.299999 11.299999
		L 21.500000 11.299999
		L 21.500000 10.700000
		M 21.699999 7.299999
		L 21.400000 6.900000
		L 22.000000 6.900000
		L 22.000000 7.700001
		L 21.400000 7.700001
		L 21.400000 6.900000
		M 24.500000 7.299999
		L 24.199999 6.900000
		L 24.799999 6.900000
		L 24.799999 7.700001
		L 24.199999 7.700001
		L 24.199999 6.900000
		M 25.699999 11.000000
		L 25.299999 10.700000
		L 26.099998 10.700000
		L 26.099998 11.299999
		L 25.299999 11.299999
		L 25.299999 10.700000
		M 24.699999 3.099998
		L 24.500000 3.299999
		L 24.299999 3.299999
		L 24.099998 3.099998
		L 24.099998 1.400000
		L 24.299999 1.199999
		L 24.500000 1.199999
		L 24.699999 1.400000
		L 24.699999 3.099998
		M 22.199999 3.099998
		L 22.000000 3.299999
		L 21.799999 3.299999
		L 21.599998 3.099998
		L 21.599998 1.400000
		L 21.799999 1.199999
		L 22.000000 1.199999
		L 22.199999 1.400000
		L 22.199999 3.099998
		M 17.799999 19.000000
		" />
	<path stroke="rgba(70, 100, 200, 0.6)" stroke-width="1.000000" fill="none" d="
		M 0 25.000000
		L 1.400000 13.799999
		M 1.000000 13.500000
		M 1.800000 13.500000
		M 1.800000 14.100000
		M 1.000000 14.100000
		M 1.000000 13.500000
		L 1.400000 13.700000
		M 5.200000 13.700000
		L 5.200000 13.799999
		M 4.800000 13.500000
		M 5.600000 13.500000
		M 5.600000 14.100000
		M 4.800000 14.100000
		M 4.800000 13.500000
		L 5.200000 11.100000
		M 5.200000 7.299999
		M 3.900000 7.299999
		M 3.900000 2.199999
		L 1.400000 2.199999
		M 1.400000 11.100000
		L 1.400000 11.000000
		M 1.000000 10.700000
		M 1.800000 10.700000
		M 1.800000 11.299999
		M 1.000000 11.299999
		M 1.000000 10.700000
		L 1.200000 7.299999
		M 0.900000 6.900000
		M 1.500000 6.900000
		M 1.500000 7.700001
		M 0.900000 7.700001
		M 0.900000 6.900000
		L 4.000000 7.299999
		M 3.700000 6.900000
		M 4.300000 6.900000
		M 4.300000 7.700001
		M 3.700000 7.700001
		M 3.700000 6.900000
		L 5.200000 11.000000
		M 4.800000 10.700000
		M 5.600000 10.700000
		M 5.600000 11.299999
		M 4.800000 11.299999
		M 4.800000 10.700000
		L 4.200000 3.099998
		M 4.000000 3.299999
		M 3.800000 3.299999
		M 3.600000 3.099998
		M 3.600000 1.400000
		M 3.800000 1.199999
		M 4.000000 1.199999
		M 4.200000 1.400000
		M 4.200000 3.099998
		L 1.700000 3.099998
		M 1.500000 3.299999
		M 1.300000 3.299999
		M 1.100000 3.099998
		M 1.100000 1.400000
		M 1.300000 1.199999
		M 1.500000 1.199999
		M 1.700000 1.400000
		M 1.700000 3.099998
		L -2.700000 19.000000
		L 5.500000 13.799999
		M 5.100000 13.500000
		M 5.900000 13.500000
		M 5.900000 14.100000
		M 5.100000 14.100000
		M 5.100000 13.500000
		L 5.500000 13.700000
		M 9.300000 13.700000
		L 9.300000 13.799999
		M 8.900000 13.500000
		M 9.700000 13.500000
		M 9.700000 14.100000
		M 8.900000 14.100000
		M 8.900000 13.500000
		L 9.300000 11.100000
		M 9.300000 7.299999
		M 8.000000 7.299999
		M 8.000000 2.199999
		L 5.500000 2.199999
		M 5.500000 11.100000
		L 5.500000 11.000000
		M 5.100000 10.700000
		M 5.900000 10.700000
		M 5.900000 11.299999
		M 5.100000 11.299999
		M 5.100000 10.700000
		L 5.300000 7.299999
		M 5.000000 6.900000
		M 5.600000 6.900000
		M 5.600000 7.700001
		M 5.000000 7.700001
		M 5.000000 6.900000
		L 8.100000 7.299999
		M 7.800000 6.900000
		M 8.400000 6.900000
		M 8.400000 7.700001
		M 7.800000 7.700001
		M 7.800000 6.900000
		L 9.300000 11.000000
		M 8.900000 10.700000
		M 9.700000 10.700000
		M 9.700000 11.299999
		M 8.900000 11.299999
		M 8.900000 10.700000
		L 8.300000 3.099998
		M 8.100000 3.299999
		M 7.900000 3.299999
		M 7.700000 3.099998
		M 7.700000 1.400000
		M 7.900000 1.199999
		M 8.100000 1.199999
		M 8.300000 1.400000
		M 8.300000 3.099998
		L 5.800000 3.099998
		M 5.600000 3.299999
		M 5.400000 3.299999
		M 5.200000 3.099998
		M 5.200000 1.400000
		M 5.400000 1.199999
		M 5.600000 1.199999
		M 5.800000 1.400000
		M 5.800000 3.099998
		L 1.400000 19.000000
		L 9.600000 13.799999
		M 9.200000 13.500000
		M 10.000000 13.500000
		M 10.000000 14.100000
		M 9.200000 14.100000
		M 9.200000 13.500000
		L 9.600000 13.700000
		M 13.400000 13.700000
		L 13.400000 13.799999
		M 13.000000 13.500000
		M 13.800000 13.500000
		M 13.800000 14.100000
		M 13.000000 14.100000
		M 13.000000 13.500000
		L 13.400000 11.100000
		M 13.400000 7.299999
		M 12.100000 7.299999
		M 12.100000 2.199999
		L 9.600000 2.199999
		M 9.600000 11.100000
		L 9.600000 11.000000
		M 9.200000 10.700000
		M 10.000000 10.700000
		M 10.000000 11.299999
		M 9.200000 11.299999
		M 9.200000 10.700000
		L 9.400000 7.299999
		M 9.100000 6.900000
		M 9.700001 6.900000
		M 9.700001 7.700001
		M 9.100000 7.700001
		M 9.100000 6.900000
		L 12.200001 7.299999
		M 11.900000 6.900000
		M 12.500000 6.900000
		M 12.500000 7.700001
		M 11.900000 7.700001
		M 11.900000 6.900000
		L 13.400000 11.000000
		M 13.000000 10.700000
		M 13.800000 10.700000
		M 13.800000 11.299999
		M 13.000000 11.299999
		M 13.000000 10.700000
		L 12.400000 3.099998
		M 12.200001 3.299999
		M 12.000000 3.299999
		M 11.800000 3.099998
		M 11.800000 1.400000
		M 12.000000 1.199999
		M 12.200001 1.199999
		M 12.400000 1.400000
		M 12.400000 3.099998
		L 9.900000 3.099998
		M 9.700001 3.299999
		M 9.500000 3.299999
		M 9.300000 3.099998
		M 9.300000 1.400000
		M 9.500000 1.199999
		M 9.700001 1.199999
		M 9.900000 1.400000
		M 9.900000 3.099998
		L 5.500000 19.000000
		L 13.699999 13.799999
		M 13.299999 13.500000
		M 14.099999 13.500000
		M 14.099999 14.100000
		M 13.299999 14.100000
		M 13.299999 13.500000
		L 13.699999 13.700000
		M 17.500000 13.700000
		L 17.500000 13.799999
		M 17.099998 13.500000
		M 17.900000 13.500000
		M 17.900000 14.100000
		M 17.099998 14.100000
		M 17.099998 13.500000
		L 17.500000 11.100000
		M 17.500000 7.299999
		M 16.199999 7.299999
		M 16.199999 2.199999
		L 13.699999 2.199999
		M 13.699999 11.100000
		L 13.699999 11.000000
		M 13.299999 10.700000
		M 14.099999 10.700000
		M 14.099999 11.299999
		M 13.299999 11.299999
		M 13.299999 10.700000
		L 13.500000 7.299999
		M 13.200000 6.900000
		M 13.799999 6.900000
		M 13.799999 7.700001
		M 13.200000 7.700001
		M 13.200000 6.900000
		L 16.299999 7.299999
		M 16.000000 6.900000
		M 16.599998 6.900000
		M 16.599998 7.700001
		M 16.000000 7.700001
		M 16.000000 6.900000
		L 17.500000 11.000000
		M 17.099998 10.700000
		M 17.900000 10.700000
		M 17.900000 11.299999
		M 17.099998 11.299999
		M 17.099998 10.700000
		L 16.500000 3.099998
		M 16.299999 3.299999
		M 16.099998 3.299999
		M 15.900000 3.099998
		M 15.900000 1.400000
		M 16.099998 1.199999
		M 16.299999 1.199999
		M 16.500000 1.400000
		M 16.500000 3.099998
		L 14.000000 3.099998
		M 13.799999 3.299999
		M 13.599999 3.299999
		M 13.400000 3.099998
		M 13.400000 1.400000
		M 13.599999 1.199999
		M 13.799999 1.199999
		M 14.000000 1.400000
		M 14.000000 3.099998
		L 9.599999 19.000000
		L 17.799999 13.799999
		M 17.400000 13.500000
		M 18.200001 13.500000
		M 18.200001 14.100000
		M 17.400000 14.100000
		M 17.400000 13.500000
		L 17.799999 13.700000
		M 21.600000 13.700000
		L 21.600000 13.799999
		M 21.200001 13.500000
		M 22.000000 13.500000
		M 22.000000 14.100000
		M 21.200001 14.100000
		M 21.200001 13.500000
		L 21.600000 11.100000
		M 21.600000 7.299999
		M 20.299999 7.299999
		M 20.299999 2.199999
		L 17.799999 2.199999
		M 17.799999 11.100000
		L 17.799999 11.000000
		M 17.400000 10.700000
		M 18.200001 10.700000
		M 18.200001 11.299999
		M 17.400000 11.299999
		M 17.400000 10.700000
		L 17.600000 7.299999
		M 17.299999 6.900000
		M 17.900000 6.900000
		M 17.900000 7.700001
		M 17.299999 7.700001
		M 17.299999 6.900000
		L 20.400000 7.299999
		M 20.100000 6.900000
		M 20.700001 6.900000
		M 20.700001 7.700001
		M 20.100000 7.700001
		M 20.100000 6.900000
		L 21.600000 11.000000
		M 21.200001 10.700000
		M 22.000000 10.700000
		M 22.000000 11.299999
		M 21.200001 11.299999
		M 21.200001 10.700000
		L 20.600000 3.099998
		M 20.400000 3.299999
		M 20.200001 3.299999
		M 20.000000 3.099998
		M 20.000000 1.400000
		M 20.200001 1.199999
		M 20.400000 1.199999
		M 20.600000 1.400000
		M 20.600000 3.099998
		L 18.100000 3.099998
		M 17.900000 3.299999
		M 17.700001 3.299999
		M 17.500000 3.099998
		M 17.500000 1.400000
		M 17.700001 1.199999
		M 17.900000 1.199999
		M 18.100000 1.400000
		M 18.100000 3.099998
		L 13.700000 19.000000
		L 21.900000 13.799999
		M 21.500000 13.500000
		M 22.299999 13.500000
		M 22.299999 14.100000
		M 21.500000 14.100000
		M 21.500000 13.500000
		L 21.900000 13.700000
		M 25.699999 13.700000
		L 25.699999 13.799999
		M 25.299999 13.500000
		M 26.099998 13.500000
		M 26.099998 14.100000
		M 25.299999 14.100000
		M 25.299999 13.500000
		L 25.699999 11.100000
		M 25.699999 7.299999
		M 24.400000 7.299999
		M 24.400000 2.199999
		L 21.900000 2.199999
		M 21.900000 11.100000
		L 21.900000 11.000000
		M 21.500000 10.700000
		M 22.299999 10.700000
		M 22.299999 11.299999
		M 21.500000 11.299999
		M 21.500000 10.700000
		L 21.699999 7.299999
		M 21.400000 6.900000
		M 22.000000 6.900000
		M 22.000000 7.700001
		M 21.400000 7.700001
		M 21.400000 6.900000
		L 24.500000 7.299999
		M 24.199999 6.900000
		M 24.799999 6.900000
		M 24.799999 7.700001
		M 24.199999 7.700001
		M 24.199999 6.900000
		L 25.699999 11.000000
		M 25.299999 10.700000
		M 26.099998 10.700000
		M 26.099998 11.299999
		M 25.299999 11.299999
		M 25.299999 10.700000
		L 24.699999 3.099998
		M 24.500000 3.299999
		M 24.299999 3.299999
		M 24.099998 3.099998
		M 24.099998 1.400000
		M 24.299999 1.199999
		M 24.500000 1.199999
		M 24.699999 1.400000
		M 24.699999 3.099998
		L 22.199999 3.099998
		M 22.000000 3.299999
		M 21.799999 3.299999
		M 21.599998 3.099998
		M 21.599998 1.400000
		M 21.799999 1.199999
		M 22.000000 1.199999
		M 22.199999 1.400000
		M 22.199999 3.099998
		L 17.799999 19.000000
		" />
</svg>
