<svg xmlns="http://www.w3.org/2000/svg" width="1000px" height="1000px" viewBox="0 0 25.000000 25.000000">
	<path stroke="#333333" stroke-width="1.000000" fill="#333333" d="
		M 0 0 L 0 25.000000 L 25.000000 25.000000 L 25.000000 0 L 0 0 
		" />
	<path stroke="rgb(200, 150, 100)" stroke-width="1.000000" fill="none" d="
		M 4.100000 19.799999
		L 3.700000 19.500000
		L 4.500000 19.500000
		L 4.500000 20.100000
		L 3.700000 20.100000
		L 3.700000 19.500000
		M 4.100000 19.700001
		L 7.900000 19.700001
		M 7.900000 19.799999
		L 7.500000 19.500000
		L 8.300000 19.500000
		L 8.300000 20.100000
		L 7.500000 20.100000
		L 7.500000 19.500000
		M 7.900000 17.100000
		L 7.900000 13.300000
		L 6.600000 13.300000
		L 6.600000 8.199999
		M 4.100000 8.199999
		L 4.100000 17.100000
		M 4.100000 17.000000
		L 3.700000 16.700001
		L 4.500000 16.700001
		L 4.500000 17.299999
		L 3.700000 17.299999
		L 3.700000 16.700001
		M 3.900000 13.300000
		L 3.600000 12.900000
		L 4.200000 12.900000
		L 4.200000 13.700000
		L 3.600000 13.700000
		L 3.600000 12.900000
		M 6.700000 13.300000
		L 6.400000 12.900000
		L 7.000000 12.900000
		L 7.000000 13.700000
		L 6.400000 13.700000
		L 6.400000 12.900000
		M 7.900000 17.000000
		L 7.500000 16.700001
		L 8.300000 16.700001
		L 8.300000 17.299999
		L 7.500000 17.299999
		L 7.500000 16.700001
		M 6.900000 9.099999
		L 6.700000 9.300000
		L 6.500000 9.300000
		L 6.300000 9.099999
		L 6.300000 7.400000
		L 6.500000 7.199999
		L 6.700000 7.199999
		L 6.900000 7.400000
		L 6.900000 9.099999
		M 4.400000 9.099999
		L 4.200000 9.300000
		L 4.000000 9.300000
		L 3.800000 9.099999
		L 3.800000 7.400000
		L 4.000000 7.199999
		L 4.200000 7.199999
		L 4.400000 7.400000
		L 4.400000 9.099999
		M 0.000000 25.000000
		M 4.100000 19.799999
		L 3.700000 19.500000
		L 4.500000 19.500000
		L 4.500000 20.100000
		L 3.700000 20.100000
		L 3.700000 19.500000
		M 4.100000 19.700001
		L 7.900000 19.700001
		M 7.900000 19.799999
		L 7.500000 19.500000
		L 8.300000 19.500000
		L 8.300000 20.100000
		L 7.500000 20.100000
		L 7.500000 19.500000
		M 7.900000 17.100000
		L 7.900000 13.300000
		L 6.600000 13.300000
		L 6.600000 8.199999
		M 4.100000 8.199999
		L 4.100000 17.100000
		M 4.100000 17.000000
		L 3.700000 16.700001
		L 4.500000 16.700001
		L 4.500000 17.299999
		L 3.700000 17.299999
		L 3.700000 16.700001
		M 3.900000 13.300000
		L 3.600000 12.900000
		L 4.200000 12.900000
		L 4.200000 13.700000
		L 3.600000 13.700000
		L 3.600000 12.900000
		M 6.700000 13.300000
		L 6.400000 12.900000
		L 7.000000 12.900000
		L 7.000000 13.700000
		L 6.400000 13.700000
		L 6.400000 12.900000
		M 7.900000 17.000000
		L 7.500000 16.700001
		L 8.300000 16.700001
		L 8.300000 17.299999
		L 7.500000 17.299999
		L 7.500000 16.700001
		M 6.900000 9.099999
		L 6.700000 9.300000
		L 6.500000 9.300000
		L 6.300000 9.099999
		L 6.300000 7.400000
		L 6.500000 7.199999
		L 6.700000 7.199999
		L 6.900000 7.400000
		L 6.900000 9.099999
		M 4.400000 9.099999
		L 4.200000 9.300000
		L 4.000000 9.300000
		L 3.800000 9.099999
		L 3.800000 7.400000
		L 4.000000 7.199999
		L 4.200000 7.199999
		L 4.400000 7.400000
		L 4.400000 9.099999
		M 0.000000 25.000000
		" />
	<path stroke="rgba(70, 100, 200, 0.6)" stroke-width="1.000000" fill="none" d="
		M 0 25.000000
		L 4.100000 19.799999
		M 3.700000 19.500000
		M 4.500000 19.500000
		M 4.500000 20.100000
		M 3.700000 20.100000
		M 3.700000 19.500000
		L 4.100000 19.700001
		M 7.900000 19.700001
		L 7.900000 19.799999
		M 7.500000 19.500000
		M 8.300000 19.500000
		M 8.300000 20.100000
		M 7.500000 20.100000
		M 7.500000 19.500000
		L 7.900000 17.100000
		M 7.900000 13.300000
		M 6.600000 13.300000
		M 6.600000 8.199999
		L 4.100000 8.199999
		M 4.100000 17.100000
		L 4.100000 17.000000
		M 3.700000 16.700001
		M 4.500000 16.700001
		M 4.500000 17.299999
		M 3.700000 17.299999
		M 3.700000 16.700001
		L 3.900000 13.300000
		M 3.600000 12.900000
		M 4.200000 12.900000
		M 4.200000 13.700000
		M 3.600000 13.700000
		M 3.600000 12.900000
		L 6.700000 13.300000
		M 6.400000 12.900000
		M 7.000000 12.900000
		M 7.000000 13.700000
		M 6.400000 13.700000
		M 6.400000 12.900000
		L 7.900000 17.000000
		M 7.500000 16.700001
		M 8.300000 16.700001
		M 8.300000 17.299999
		M 7.500000 17.299999
		M 7.500000 16.700001
		L 6.900000 9.099999
		M 6.700000 9.300000
		M 6.500000 9.300000
		M 6.300000 9.099999
		M 6.300000 7.400000
		M 6.500000 7.199999
		M 6.700000 7.199999
		M 6.900000 7.400000
		M 6.900000 9.099999
		L 4.400000 9.099999
		M 4.200000 9.300000
		M 4.000000 9.300000
		M 3.800000 9.099999
		M 3.800000 7.400000
		M 4.000000 7.199999
		M 4.200000 7.199999
		M 4.400000 7.400000
		M 4.400000 9.099999
		L 0.000000 25.000000
		L 4.100000 19.799999
		M 3.700000 19.500000
		M 4.500000 19.500000
		M 4.500000 20.100000
		M 3.700000 20.100000
		M 3.700000 19.500000
		L 4.100000 19.700001
		M 7.900000 19.700001
		L 7.900000 19.799999
		M 7.500000 19.500000
		M 8.300000 19.500000
		M 8.300000 20.100000
		M 7.500000 20.100000
		M 7.500000 19.500000
		L 7.900000 17.100000
		M 7.900000 13.300000
		M 6.600000 13.300000
		M 6.600000 8.199999
		L 4.100000 8.199999
		M 4.100000 17.100000
		L 4.100000 17.000000
		M 3.700000 16.700001
		M 4.500000 16.700001
		M 4.500000 17.299999
		M 3.700000 17.299999
		M 3.700000 16.700001
		L 3.900000 13.300000
		M 3.600000 12.900000
		M 4.200000 12.900000
		M 4.200000 13.700000
		M 3.600000 13.700000
		M 3.600000 12.900000
		L 6.700000 13.300000
		M 6.400000 12.900000
		M 7.000000 12.900000
		M 7.000000 13.700000
		M 6.400000 13.700000
		M 6.400000 12.900000
		L 7.900000 17.000000
		M 7.500000 16.700001
		M 8.300000 16.700001
		M 8.300000 17.299999
		M 7.500000 17.299999
		M 7.500000 16.700001
		L 6.900000 9.099999
		M 6.700000 9.300000
		M 6.500000 9.300000
		M 6.300000 9.099999
		M 6.300000 7.400000
		M 6.500000 7.199999
		M 6.700000 7.199999
		M 6.900000 7.400000
		M 6.900000 9.099999
		L 4.400000 9.099999
		M 4.200000 9.300000
		M 4.000000 9.300000
		M 3.800000 9.099999
		M 3.800000 7.400000
		M 4.000000 7.199999
		M 4.200000 7.199999
		M 4.400000 7.400000
		M 4.400000 9.099999
		L 0.000000 25.000000
		" />
</svg>
