<svg xmlns="http://www.w3.org/2000/svg" width="1000px" height="1000px" viewBox="0 0 25.000000 25.000000">
	<path stroke="#333333" stroke-width="1.000000" fill="#333333" d="
		M 0 0 L 0 25.000000 L 25.000000 25.000000 L 25.000000 0 L 0 0 
		" />
	<path stroke="rgb(200, 150, 100)" stroke-width="1.000000" fill="none" d="
		M 1.000000 24.200001
		L 0.600000 23.900000
		L 1.400000 23.900000
		L 1.400000 24.500000
		L 0.600000 24.500000
		L 0.600000 23.900000
		M 1.000000 24.100000
		L 4.800000 24.100000
		M 4.800000 24.200001
		L 4.400000 23.900000
		L 5.200000 23.900000
		L 5.200000 24.500000
		L 4.400000 24.500000
		L 4.400000 23.900000
		M 4.800000 21.500000
		L 4.800000 17.700001
		L 3.500000 17.700001
		L 3.500000 12.599998
		M 1.000000 12.599998
		L 1.000000 21.500000
		M 1.000000 21.400000
		L 0.600000 21.100000
		L 1.400000 21.100000
		L 1.400000 21.700001
		L 0.600000 21.700001
		L 0.600000 21.100000
		M 0.800000 17.700001
		L 0.500000 17.299999
		L 1.100000 17.299999
		L 1.100000 18.100000
		L 0.500000 18.100000
		L 0.500000 17.299999
		M 3.600000 17.700001
		L 3.300000 17.299999
		L 3.900000 17.299999
		L 3.900000 18.100000
		L 3.300000 18.100000
		L 3.300000 17.299999
		M 4.800000 21.400000
		L 4.400000 21.100000
		L 5.200000 21.100000
		L 5.200000 21.700001
		L 4.400000 21.700001
		L 4.400000 21.100000
		M 3.800000 13.500000
		L 3.600000 13.700001
		L 3.400000 13.700001
		L 3.200000 13.500000
		L 3.200000 11.799999
		L 3.400000 11.599998
		L 3.600000 11.599998
		L 3.800000 11.799999
		L 3.800000 13.500000
		M 1.300000 13.500000
		L 1.100000 13.700001
		L 0.900000 13.700001
		L 0.700000 13.500000
		L 0.700000 11.799999
		L 0.900000 11.599998
		L 1.100000 11.599998
		L 1.300000 11.799999
		L 1.300000 13.500000
		M -3.100000 29.400000
		M 1.000000 24.200001
		L 0.600000 23.900000
		L 1.400000 23.900000
		L 1.400000 24.500000
		L 0.600000 24.500000
		L 0.600000 23.900000
		M 1.000000 24.100000
		L 4.800000 24.100000
		M 4.800000 24.200001
		L 4.400000 23.900000
		L 5.200000 23.900000
		L 5.200000 24.500000
		L 4.400000 24.500000
		L 4.400000 23.900000
		M 4.800000 21.500000
		L 4.800000 17.700001
		L 3.500000 17.700001
		L 3.500000 12.599998
		M 1.000000 12.599998
		L 1.000000 21.500000
		M 1.000000 21.400000
		L 0.600000 21.100000
		L 1.400000 21.100000
		L 1.400000 21.700001
		L 0.600000 21.700001
		L 0.600000 21.100000
		M 0.800000 17.700001
		L 0.500000 17.299999
		L 1.100000 17.299999
		L 1.100000 18.100000
		L 0.500000 18.100000
		L 0.500000 17.299999
		M 3.600000 17.700001
		L 3.300000 17.299999
		L 3.900000 17.299999
		L 3.900000 18.100000
		L 3.300000 18.100000
		L 3.300000 17.299999
		M 4.800000 21.400000
		L 4.400000 21.100000
		L 5.200000 21.100000
		L 5.200000 21.700001
		L 4.400000 21.700001
		L 4.400000 21.100000
		M 3.800000 13.500000
		L 3.600000 13.700001
		L 3.400000 13.700001
		L 3.200000 13.500000
		L 3.200000 11.799999
		L 3.400000 11.599998
		L 3.600000 11.599998
		L 3.800000 11.799999
		L 3.800000 13.500000
		M 1.300000 13.500000
		L 1.100000 13.700001
		L 0.900000 13.700001
		L 0.700000 13.500000
		L 0.700000 11.799999
		L 0.900000 11.599998
		L 1.100000 11.599998
		L 1.300000 11.799999
		L 1.300000 13.500000
		M -3.100000 29.400000
		" />
	<path stroke="rgba(70, 100, 200, 0.6)" stroke-width="1.000000" fill="none" d="
		M 0 25.000000
		L 1.000000 24.200001
		M 0.600000 23.900000
		M 1.400000 23.900000
		M 1.400000 24.500000
		M 0.600000 24.500000
		M 0.600000 23.900000
		L 1.000000 24.100000
		M 4.800000 24.100000
		L 4.800000 24.200001
		M 4.400000 23.900000
		M 5.200000 23.900000
		M 5.200000 24.500000
		M 4.400000 24.500000
		M 4.400000 23.900000
		L 4.800000 21.500000
		M 4.800000 17.700001
		M 3.500000 17.700001
		M 3.500000 12.599998
		L 1.000000 12.599998
		M 1.000000 21.500000
		L 1.000000 21.400000
		M 0.600000 21.100000
		M 1.400000 21.100000
		M 1.400000 21.700001
		M 0.600000 21.700001
		M 0.600000 21.100000
		L 0.800000 17.700001
		M 0.500000 17.299999
		M 1.100000 17.299999
		M 1.100000 18.100000
		M 0.500000 18.100000
		M 0.500000 17.299999
		L 3.600000 17.700001
		M 3.300000 17.299999
		M 3.900000 17.299999
		M 3.900000 18.100000
		M 3.300000 18.100000
		M 3.300000 17.299999
		L 4.800000 21.400000
		M 4.400000 21.100000
		M 5.200000 21.100000
		M 5.200000 21.700001
		M 4.400000 21.700001
		M 4.400000 21.100000
		L 3.800000 13.500000
		M 3.600000 13.700001
		M 3.400000 13.700001
		M 3.200000 13.500000
		M 3.200000 11.799999
		M 3.400000 11.599998
		M 3.600000 11.599998
		M 3.800000 11.799999
		M 3.800000 13.500000
		L 1.300000 13.500000
		M 1.100000 13.700001
		M 0.900000 13.700001
		M 0.700000 13.500000
		M 0.700000 11.799999
		M 0.900000 11.599998
		M 1.100000 11.599998
		M 1.300000 11.799999
		M 1.300000 13.500000
		L -3.100000 29.400000
		L 1.000000 24.200001
		M 0.600000 23.900000
		M 1.400000 23.900000
		M 1.400000 24.500000
		M 0.600000 24.500000
		M 0.600000 23.900000
		L 1.000000 24.100000
		M 4.800000 24.100000
		L 4.800000 24.200001
		M 4.400000 23.900000
		M 5.200000 23.900000
		M 5.200000 24.500000
		M 4.400000 24.500000
		M 4.400000 23.900000
		L 4.800000 21.500000
		M 4.800000 17.700001
		M 3.500000 17.700001
		M 3.500000 12.599998
		L 1.000000 12.599998
		M 1.000000 21.500000
		L 1.000000 21.400000
		M 0.600000 21.100000
		M 1.400000 21.100000
		M 1.400000 21.700001
		M 0.600000 21.700001
		M 0.600000 21.100000
		L 0.800000 17.700001
		M 0.500000 17.299999
		M 1.100000 17.299999
		M 1.100000 18.100000
		M 0.500000 18.100000
		M 0.500000 17.299999
		L 3.600000 17.700001
		M 3.300000 17.299999
		M 3.900000 17.299999
		M 3.900000 18.100000
		M 3.300000 18.100000
		M 3.300000 17.299999
		L 4.800000 21.400000
		M 4.400000 21.100000
		M 5.200000 21.100000
		M 5.200000 21.700001
		M 4.400000 21.700001
		M 4.400000 21.100000
		L 3.800000 13.500000
		M 3.600000 13.700001
		M 3.400000 13.700001
		M 3.200000 13.500000
		M 3.200000 11.799999
		M 3.400000 11.599998
		M 3.600000 11.599998
		M 3.800000 11.799999
		M 3.800000 13.500000
		L 1.300000 13.500000
		M 1.100000 13.700001
		M 0.900000 13.700001
		M 0.700000 13.500000
		M 0.700000 11.799999
		M 0.900000 11.599998
		M 1.100000 11.599998
		M 1.300000 11.799999
		M 1.300000 13.500000
		L -3.100000 29.400000
		" />
</svg>
